<svg preserveAspectRatio="none" overflow="visible" style="display: block;" width="49.7818" height="38.1205" viewBox="0 0 49.7818 38.1205" fill="none" xmlns="http://www.w3.org/2000/svg">
<g id="Group 3161">
<g id="Group 3160">
<path id="Vector" d="M21.5244 37.8705C20.6196 37.8705 19.7148 37.6443 18.9231 37.2297C17.0381 36.2119 10.4782 32.3292 5.80338 25.0539C1.31703 18.0801 0.449922 10.9179 0.26142 8.16613C0.110619 5.90438 1.46783 3.68032 3.61675 2.62484L7.5376 0.551567C7.9523 0.325391 8.44241 0.25 8.89481 0.25C10.1012 0.25 11.1568 0.966221 11.5715 2.0594L14.5499 10.164C15.0023 11.4457 14.4745 12.9158 13.2681 13.6697L10.629 15.366C10.5159 15.4414 10.4028 15.5922 10.3651 15.7053C10.3274 15.7807 10.3651 15.8561 10.4028 15.9315L16.0579 24.7523C16.1333 24.8654 16.2841 24.9031 16.3595 24.9031C16.4349 24.9031 16.548 24.9031 16.6611 24.79L19.3001 23.0937C19.8279 22.7544 20.3934 22.6037 20.9966 22.6037C21.7883 22.6037 22.5047 22.9052 23.0325 23.433L29.1776 29.5397C29.7431 30.1051 30.007 30.8214 29.9693 31.6507C29.9316 32.48 29.5169 33.3093 28.8383 33.837L28.6498 33.9878L25.3322 36.5511C24.2766 37.3804 22.9194 37.8705 21.5244 37.8705ZM8.89481 2.51175C8.78171 2.51175 8.63091 2.54945 8.51781 2.58714L8.2916 2.70023L4.63467 4.62272C3.27745 5.30125 2.41034 6.6583 2.48574 8.01535C2.63654 10.5787 3.46595 17.2885 7.6507 23.8476C12.0239 30.6329 18.1691 34.2894 19.941 35.2318C20.3934 35.4956 20.9212 35.6087 21.4867 35.6087C22.3538 35.6087 23.221 35.3072 23.8996 34.7417L27.4057 32.0276C27.5942 31.8768 27.7073 31.6884 27.7073 31.4622C27.7073 31.3491 27.7073 31.1983 27.5565 31.0852L21.449 25.0162C21.2605 24.8277 20.8458 24.79 20.5442 24.9785L17.9052 26.6748C17.4528 26.9764 16.925 27.1272 16.3595 27.1272C15.4547 27.1272 14.6253 26.6748 14.1729 25.9586L8.51781 17.1377C8.1408 16.5723 8.0277 15.8938 8.1785 15.2153C8.3293 14.499 8.78171 13.8582 9.42262 13.4436L12.0616 11.7472C12.3632 11.5588 12.514 11.2195 12.4009 10.9179L9.46032 2.81332C9.38492 2.58714 9.12101 2.51175 8.89481 2.51175Z" fill="#59668A" stroke="white" stroke-width="0.5"/>
</g>
<g id="Union">
<path d="M40.6665 4.86892L41.1538 5.8992L41.5522 6.73513C41.9277 7.53519 42.233 8.22714 42.4682 8.81033L42.6968 9.40603C42.9184 10.0212 43.1186 10.6958 43.2973 11.4295L44.0766 14.6375L44.9595 11.4656L45.1782 10.6844C45.3992 9.92969 45.628 9.25483 45.8638 8.66091V8.65994C46.1896 7.87057 46.5966 6.96906 47.0845 5.95584L47.5903 4.88748L47.6401 4.78298L47.7368 4.84744L49.3862 5.95388L49.4595 6.00271L49.4204 6.08084C48.8769 7.17707 48.4353 8.09702 48.0962 8.8406L47.7915 9.52517C47.4311 10.3454 47.0881 11.2915 46.7641 12.3631L44.9663 18.2927L44.9741 18.324L44.9555 18.326L44.9458 18.3611L44.9263 18.4275L44.8569 18.4324L43.394 18.5261L43.2876 18.533V18.5301L43.0249 18.5633L42.9389 18.574L42.9165 18.49L41.2856 12.3797C41.0116 11.3832 40.7189 10.519 40.4087 9.78689V9.78591C40.0976 9.03951 39.6737 8.14247 39.1372 7.09451V7.09353L38.6304 6.08084L38.5893 5.9988L38.6684 5.95095L40.5239 4.82595L40.6186 4.76931L40.6665 4.86892ZM23.0962 5.08377C23.3337 6.62147 23.4967 7.84247 23.5845 8.7449C23.6723 9.63644 23.7163 10.7397 23.7163 12.0535V18.3767H21.5854V12.2967C21.5854 11.1252 21.5293 10.0797 21.4175 9.15994C21.3053 8.23793 21.1242 7.08993 20.8745 5.71658L20.8589 5.62869L20.9448 5.6033L22.9692 5.00369L23.0786 4.97048L23.0962 5.08377ZM27.6206 5.08377C27.8061 6.25554 27.9444 7.24934 28.0386 8.06423L28.0532 8.0574L28.0708 8.199C28.1451 8.80579 28.2681 9.2304 28.4302 9.48611L28.4917 9.56521C28.6516 9.73839 28.9201 9.83565 29.3218 9.83572H29.7524C30.0471 9.83572 30.2721 9.75881 30.437 9.61599C30.606 9.46953 30.7141 9.27784 30.7602 9.03591V9.03494L31.435 5.69802L31.4546 5.60232L31.5513 5.6199L33.5014 5.97537L33.6011 5.99392L33.5805 6.09353L33.019 8.86795L33.0161 8.87966L32.9204 8.84841L33.0151 8.87966C33.0079 8.90151 33.0015 8.94474 33.0014 9.01638C33.0014 9.24015 33.0797 9.43487 33.2378 9.60427H33.2368C33.3914 9.75785 33.5843 9.83563 33.8208 9.83572H35.5014V5.41189H37.6323V9.35427C37.6323 10.2469 37.3957 10.972 36.9136 11.5193C36.4399 12.0585 35.7532 12.322 34.8706 12.322H33.8393C33.3765 12.322 32.9657 12.2321 32.6118 12.0486L32.6108 12.0476C32.3032 11.8819 32.0366 11.6226 31.8091 11.2761C31.5657 11.6031 31.2709 11.8557 30.9223 12.0301C30.533 12.2246 30.1108 12.322 29.6587 12.322C29.1068 12.322 28.6387 12.2034 28.2583 11.9666C28.2583 11.9954 28.2593 12.0245 28.2593 12.0535V18.3767H26.1284V12.2967C26.1284 11.1252 26.0723 10.0797 25.9604 9.15994C25.8483 8.23792 25.6672 7.08994 25.4175 5.71658L25.4018 5.62869L25.4868 5.6033L27.4927 5.00369L27.603 4.97048L27.6206 5.08377ZM21.685 18.2761H21.686V12.2967H21.685V18.2761ZM26.228 18.2761H26.229V12.2967H26.228V18.2761ZM29.4927 12.2185L29.6587 12.2224V12.2215C29.5655 12.2214 29.4751 12.2176 29.3872 12.2107C29.422 12.2134 29.4571 12.2169 29.4927 12.2185ZM23.6167 12.0535L23.6128 11.3377C23.6121 11.2875 23.6097 11.2377 23.6089 11.1883C23.6134 11.4656 23.6167 11.754 23.6167 12.0535ZM32.6577 11.9597C32.662 11.962 32.6671 11.9634 32.6714 11.9656C32.6672 11.9635 32.6628 11.9619 32.6587 11.9597C32.5976 11.9269 32.538 11.8901 32.48 11.8494L32.6577 11.9597ZM43.2007 11.4539L43.0639 10.9168C43.0524 10.8738 43.0395 10.8314 43.0278 10.7888C43.0873 11.0047 43.1453 11.2265 43.2007 11.4539ZM29.7524 9.93533L29.8667 9.93142C29.8869 9.93005 29.9066 9.92671 29.9263 9.92459C29.8707 9.93061 29.8126 9.93533 29.7524 9.93533ZM35.6011 9.93533H35.602V5.5115H35.6011V9.93533ZM25.9624 8.41287C25.999 8.67202 26.031 8.91718 26.0591 9.14822C26.0872 9.37933 26.1122 9.61829 26.1333 9.86502C26.1122 9.61829 26.0881 9.37933 26.06 9.14822C26.0319 8.91689 25.9991 8.67137 25.9624 8.41189V8.41287Z" fill="#00B757"/>
<path d="M40.6665 4.86892L40.8925 4.76203L40.8918 4.76067L40.6665 4.86892ZM41.1538 5.8992L40.9278 6.00609L40.9281 6.00676L41.1538 5.8992ZM41.5522 6.73513L41.7786 6.62893L41.7779 6.62757L41.5522 6.73513ZM42.4682 8.81033L42.7017 8.72078L42.7001 8.71682L42.4682 8.81033ZM42.6968 9.40603L42.932 9.32129L42.9302 9.31649L42.6968 9.40603ZM43.2973 11.4295L43.5403 11.3705L43.5402 11.3703L43.2973 11.4295ZM44.0766 14.6375L43.8337 14.6965L44.0602 15.6289L44.3175 14.7045L44.0766 14.6375ZM44.9595 11.4656L44.7187 11.3982L44.7186 11.3986L44.9595 11.4656ZM45.1782 10.6844L44.9383 10.6141L44.9375 10.6169L45.1782 10.6844ZM45.8638 8.66091L46.0961 8.75313L46.1138 8.70871V8.66091H45.8638ZM45.8638 8.65994L45.6327 8.56456L45.6138 8.61037V8.65994H45.8638ZM47.0845 5.95584L47.3097 6.0643L47.3104 6.06282L47.0845 5.95584ZM47.5903 4.88748L47.3646 4.77991L47.3644 4.78049L47.5903 4.88748ZM47.6401 4.78298L47.7788 4.57497L47.5386 4.41486L47.4144 4.67542L47.6401 4.78298ZM47.7368 4.84744L47.8761 4.63982L47.8755 4.63942L47.7368 4.84744ZM49.3862 5.95388L49.2469 6.1615L49.2475 6.1619L49.3862 5.95388ZM49.4595 6.00271L49.6831 6.11451L49.7818 5.91712L49.5981 5.7947L49.4595 6.00271ZM49.4204 6.08084L49.1968 5.96903L49.1964 5.96979L49.4204 6.08084ZM48.0962 8.8406L47.8687 8.73687L47.8678 8.73895L48.0962 8.8406ZM47.7915 9.52517L47.5631 9.42352L47.5626 9.42459L47.7915 9.52517ZM46.7641 12.3631L47.0034 12.4356L47.0034 12.4354L46.7641 12.3631ZM44.9663 18.2927L44.727 18.2202L44.707 18.2863L44.7238 18.3534L44.9663 18.2927ZM44.9741 18.324L45.0003 18.5726L45.2864 18.5425L45.2166 18.2634L44.9741 18.324ZM44.9555 18.326L44.9294 18.0773L44.7602 18.0951L44.7147 18.259L44.9555 18.326ZM44.9458 18.3611L45.1856 18.4317L45.1867 18.428L44.9458 18.3611ZM44.9263 18.4275L44.9438 18.6769L45.1171 18.6647L45.1661 18.4981L44.9263 18.4275ZM44.8569 18.4324L44.8729 18.6819L44.8745 18.6818L44.8569 18.4324ZM43.394 18.5261L43.378 18.2767L43.378 18.2767L43.394 18.5261ZM43.2876 18.533H43.0376V18.7996L43.3036 18.7825L43.2876 18.533ZM43.2876 18.5301H43.5376V18.2465L43.2562 18.282L43.2876 18.5301ZM43.0249 18.5633L43.0559 18.8113L43.0562 18.8113L43.0249 18.5633ZM42.9389 18.574L42.6974 18.6386L42.7537 18.8491L42.97 18.8221L42.9389 18.574ZM42.9165 18.49L42.6749 18.5545L42.675 18.5546L42.9165 18.49ZM41.2856 12.3797L41.5272 12.3152L41.5267 12.3134L41.2856 12.3797ZM40.4087 9.78689H40.1587V9.83768L40.1785 9.88444L40.4087 9.78689ZM40.4087 9.78591H40.6587V9.7359L40.6394 9.68974L40.4087 9.78591ZM39.1372 7.09451H38.8872V7.15478L38.9147 7.20844L39.1372 7.09451ZM39.1372 7.09353H39.3872V7.03446L39.3608 6.98164L39.1372 7.09353ZM38.6304 6.08084L38.4067 6.19264L38.4068 6.19273L38.6304 6.08084ZM38.5893 5.9988L38.4599 5.7849L38.2626 5.90429L38.3657 6.11061L38.5893 5.9988ZM38.6684 5.95095L38.7978 6.16486L38.7981 6.16473L38.6684 5.95095ZM40.5239 4.82595L40.3956 4.61138L40.3943 4.61218L40.5239 4.82595ZM40.6186 4.76931L40.844 4.66106L40.7254 4.4142L40.4903 4.55474L40.6186 4.76931ZM23.0962 5.08377L23.3432 5.0456L23.3432 5.04543L23.0962 5.08377ZM23.5845 8.7449L23.3356 8.76909L23.3357 8.76943L23.5845 8.7449ZM23.7163 12.0535H23.9663V12.0535H23.7163ZM23.7163 18.3767V18.6267H23.9663V18.3767H23.7163ZM21.5854 18.3767H21.3354V18.6267H21.5854V18.3767ZM21.5854 12.2967H21.8354V12.2967L21.5854 12.2967ZM21.4175 9.15994L21.6656 9.12975L21.6656 9.12975L21.4175 9.15994ZM20.8745 5.71658L20.6283 5.76034L20.6285 5.7613L20.8745 5.71658ZM20.8589 5.62869L20.788 5.38893L20.5736 5.45229L20.6127 5.67245L20.8589 5.62869ZM20.9448 5.6033L21.0156 5.84305L21.0158 5.843L20.9448 5.6033ZM22.9692 5.00369L23.0402 5.2434L23.0418 5.24291L22.9692 5.00369ZM23.0786 4.97048L23.3256 4.93215L23.2815 4.64763L23.006 4.73126L23.0786 4.97048ZM27.6206 5.08377L27.3735 5.1221L27.3737 5.12287L27.6206 5.08377ZM28.0386 8.06423L27.7902 8.09294L27.83 8.43743L28.1443 8.29078L28.0386 8.06423ZM28.0532 8.0574L28.3013 8.0266L28.259 7.6855L27.9475 7.83085L28.0532 8.0574ZM28.0708 8.199L28.3189 8.1686L28.3189 8.1682L28.0708 8.199ZM28.4302 9.48611L28.219 9.61992L28.2254 9.63009L28.2328 9.63959L28.4302 9.48611ZM28.4917 9.56521L28.2943 9.7187L28.3008 9.72705L28.308 9.73483L28.4917 9.56521ZM29.3218 9.83572L29.3217 10.0857H29.3218V9.83572ZM30.437 9.61599L30.6006 9.80498L30.6007 9.8049L30.437 9.61599ZM30.7602 9.03591L31.0058 9.08277L31.0102 9.05955V9.03591H30.7602ZM30.7602 9.03494L30.5152 8.98538L30.5102 9.00991V9.03494H30.7602ZM31.435 5.69802L31.1901 5.64803L31.19 5.64847L31.435 5.69802ZM31.4546 5.60232L31.4993 5.35635L31.2585 5.31258L31.2096 5.55233L31.4546 5.60232ZM31.5513 5.6199L31.5961 5.37395L31.596 5.37393L31.5513 5.6199ZM33.5014 5.97537L33.5472 5.72959L33.5463 5.72942L33.5014 5.97537ZM33.6011 5.99392L33.8459 6.04433L33.8973 5.7948L33.6468 5.74815L33.6011 5.99392ZM33.5805 6.09353L33.3357 6.04312L33.3355 6.04394L33.5805 6.09353ZM33.019 8.86795L33.2618 8.92864L33.2641 8.91754L33.019 8.86795ZM33.0161 8.87966L32.9385 9.11732L33.1936 9.2006L33.2586 8.9403L33.0161 8.87966ZM32.9204 8.84841L32.998 8.61076L32.8421 9.08583L32.9204 8.84841ZM33.0151 8.87966L33.2524 8.95845L33.3313 8.72072L33.0934 8.64225L33.0151 8.87966ZM33.0014 9.01638L32.7514 9.01629V9.01638H33.0014ZM33.2378 9.60427V9.85427H33.8129L33.4206 9.43374L33.2378 9.60427ZM33.2368 9.60427V9.35427H32.6305L33.0606 9.78161L33.2368 9.60427ZM33.8208 9.83572L33.8207 10.0857H33.8208V9.83572ZM35.5014 9.83572V10.0857H35.7514V9.83572H35.5014ZM35.5014 5.41189V5.16189H35.2514V5.41189H35.5014ZM37.6323 5.41189H37.8823V5.16189H37.6323V5.41189ZM37.6323 9.35427L37.8823 9.35428V9.35427H37.6323ZM36.9136 11.5193L36.726 11.3541L36.7257 11.3543L36.9136 11.5193ZM34.8706 12.322V12.572H34.8706L34.8706 12.322ZM33.8393 12.322L33.8393 12.572H33.8393V12.322ZM32.6118 12.0486L32.435 12.2254L32.4624 12.2527L32.4967 12.2706L32.6118 12.0486ZM32.6108 12.0476L32.7876 11.8709L32.7617 11.8449L32.7294 11.8275L32.6108 12.0476ZM31.8091 11.2761L32.018 11.1389L31.8219 10.8402L31.6085 11.1269L31.8091 11.2761ZM30.9223 12.0301L31.0341 12.2537L31.0342 12.2536L30.9223 12.0301ZM29.6587 12.322L29.6586 12.572H29.6587V12.322ZM28.2583 11.9666L28.3904 11.7543L28.0075 11.516L28.0083 11.967L28.2583 11.9666ZM28.2593 12.0535H28.5093V12.0535L28.2593 12.0535ZM28.2593 18.3767V18.6267H28.5093V18.3767H28.2593ZM26.1284 18.3767H25.8784V18.6267H26.1284V18.3767ZM26.1284 12.2967H26.3784V12.2967L26.1284 12.2967ZM25.9604 9.15994L26.2086 9.12975V9.12975L25.9604 9.15994ZM25.4175 5.71658L25.1713 5.76034L25.1715 5.7613L25.4175 5.71658ZM25.4018 5.62869L25.3303 5.38916L25.1167 5.45298L25.1557 5.67245L25.4018 5.62869ZM25.4868 5.6033L25.5584 5.84283L25.5584 5.84282L25.4868 5.6033ZM27.4927 5.00369L27.5643 5.24321L27.5647 5.24309L27.4927 5.00369ZM27.603 4.97048L27.8501 4.93215L27.806 4.64833L27.531 4.73109L27.603 4.97048ZM21.685 18.2761H21.435V18.5261H21.685V18.2761ZM21.686 18.2761V18.5261H21.936V18.2761H21.686ZM21.686 12.2967H21.936V12.0467H21.686V12.2967ZM21.685 12.2967V12.0467H21.435V12.2967H21.685ZM26.228 18.2761H25.978V18.5261H26.228V18.2761ZM26.229 18.2761V18.5261H26.479V18.2761H26.229ZM26.229 12.2967H26.479V12.0467H26.229V12.2967ZM26.228 12.2967V12.0467H25.978V12.2967H26.228ZM29.4927 12.2185L29.4812 12.4683L29.4868 12.4685L29.4927 12.2185ZM29.6587 12.2224L29.6528 12.4724L29.9087 12.4784V12.2224H29.6587ZM29.6587 12.2215H29.9087V11.9715L29.6587 11.9715L29.6587 12.2215ZM29.3872 12.2107L29.4066 11.9615L29.3678 12.46L29.3872 12.2107ZM23.6167 12.0535L23.3667 12.0549L23.8667 12.0535H23.6167ZM23.6128 11.3377L23.8628 11.3363L23.8628 11.3343L23.6128 11.3377ZM23.6089 11.1883L23.8588 11.1841L23.3589 11.1924L23.6089 11.1883ZM32.6577 11.9597L32.5258 12.1721L32.534 12.1772L32.5426 12.1817L32.6577 11.9597ZM32.6714 11.9656L32.5578 12.1883L32.7849 11.7429L32.6714 11.9656ZM32.6587 11.9597L32.5401 12.1799L32.5436 12.1817L32.6587 11.9597ZM32.48 11.8494L32.6118 11.637L32.3364 12.054L32.48 11.8494ZM43.2007 11.4539L42.9584 11.5156L43.4436 11.3947L43.2007 11.4539ZM43.0639 10.9168L43.3062 10.8551L43.3054 10.8518L43.0639 10.9168ZM43.0278 10.7888L43.2688 10.7224L42.7868 10.8553L43.0278 10.7888ZM29.7524 9.93533L29.7439 9.68547L29.7524 10.1853V9.93533ZM29.8667 9.93142L29.8752 10.1814L29.8837 10.1808L29.8667 9.93142ZM29.9263 9.92459L29.9532 10.1731L29.8993 9.67604L29.9263 9.92459ZM35.6011 9.93533H35.3511V10.1853H35.6011V9.93533ZM35.602 9.93533V10.1853H35.852V9.93533H35.602ZM35.602 5.5115H35.852V5.2615H35.602V5.5115ZM35.6011 5.5115V5.2615H35.3511V5.5115H35.6011ZM25.9624 8.41287H25.7124V8.43044L25.7148 8.44785L25.9624 8.41287ZM26.0591 9.14822L26.3072 9.11803V9.11803L26.0591 9.14822ZM26.1333 9.86502L25.8842 9.88633L26.3824 9.84373L26.1333 9.86502ZM26.06 9.14822L26.3082 9.11803L26.3082 9.11803L26.06 9.14822ZM25.9624 8.41189L26.2099 8.37684L25.7124 8.41189H25.9624ZM40.6665 4.86892L40.4405 4.97581L40.9278 6.00609L41.1538 5.8992L41.3798 5.7923L40.8925 4.76203L40.6665 4.86892ZM41.1538 5.8992L40.9281 6.00676L41.3266 6.8427L41.5522 6.73513L41.7779 6.62757L41.3795 5.79163L41.1538 5.8992ZM41.5522 6.73513L41.3259 6.84134C41.7001 7.63872 42.0034 8.32624 42.2364 8.90384L42.4682 8.81033L42.7001 8.71682C42.4626 8.12804 42.1552 7.43166 41.7785 6.62893L41.5522 6.73513ZM42.4682 8.81033L42.2348 8.89987L42.4633 9.49557L42.6968 9.40603L42.9302 9.31649L42.7017 8.72079L42.4682 8.81033ZM42.6968 9.40603L42.4616 9.49075C42.6797 10.0964 42.8775 10.7624 43.0544 11.4886L43.2973 11.4295L43.5402 11.3703C43.3597 10.6293 43.157 9.94605 42.932 9.32131L42.6968 9.40603ZM43.2973 11.4295L43.0544 11.4885L43.8337 14.6965L44.0766 14.6375L44.3196 14.5785L43.5403 11.3705L43.2973 11.4295ZM44.0766 14.6375L44.3175 14.7045L45.2003 11.5326L44.9595 11.4656L44.7186 11.3986L43.8358 14.5704L44.0766 14.6375ZM44.9595 11.4656L45.2002 11.533L45.4189 10.7518L45.1782 10.6844L44.9375 10.6169L44.7187 11.3982L44.9595 11.4656ZM45.1782 10.6844L45.4181 10.7546C45.6374 10.0058 45.8638 9.33849 46.0961 8.75313L45.8638 8.66091L45.6314 8.56869C45.3923 9.17117 45.161 9.85355 44.9383 10.6141L45.1782 10.6844ZM45.8638 8.66091H46.1138V8.65994H45.8638H45.6138V8.66091H45.8638ZM45.8638 8.65994L46.0948 8.75532C46.4184 7.9715 46.8233 7.07449 47.3097 6.0643L47.0845 5.95584L46.8592 5.84737C46.3698 6.86364 45.9608 7.76965 45.6327 8.56456L45.8638 8.65994ZM47.0845 5.95584L47.3104 6.06282L47.8163 4.99446L47.5903 4.88748L47.3644 4.78049L46.8585 5.84885L47.0845 5.95584ZM47.5903 4.88748L47.816 4.99504L47.8658 4.89055L47.6401 4.78298L47.4144 4.67542L47.3646 4.77991L47.5903 4.88748ZM47.6401 4.78298L47.5014 4.991L47.5981 5.05545L47.7368 4.84744L47.8755 4.63942L47.7788 4.57497L47.6401 4.78298ZM47.7368 4.84744L47.5975 5.05505L49.2469 6.1615L49.3862 5.95388L49.5255 5.74627L47.8761 4.63982L47.7368 4.84744ZM49.3862 5.95388L49.2475 6.1619L49.3208 6.21072L49.4595 6.00271L49.5981 5.7947L49.5249 5.74587L49.3862 5.95388ZM49.4595 6.00271L49.2358 5.89091L49.1968 5.96903L49.4204 6.08084L49.644 6.19264L49.6831 6.11451L49.4595 6.00271ZM49.4204 6.08084L49.1964 5.96979C48.6523 7.06733 48.2093 7.98991 47.8687 8.73687L48.0962 8.8406L48.3236 8.94433C48.6612 8.20412 49.1015 7.28681 49.6444 6.19188L49.4204 6.08084ZM48.0962 8.8406L47.8678 8.73895L47.5631 9.42352L47.7915 9.52517L48.0199 9.62683L48.3246 8.94226L48.0962 8.8406ZM47.7915 9.52517L47.5626 9.42459C47.1973 10.2558 46.8511 11.2117 46.5248 12.2907L46.7641 12.3631L47.0034 12.4354C47.3252 11.3713 47.6648 10.4349 48.0204 9.62575L47.7915 9.52517ZM46.7641 12.3631L46.5249 12.2905L44.727 18.2202L44.9663 18.2927L45.2055 18.3653L47.0034 12.4356L46.7641 12.3631ZM44.9663 18.2927L44.7238 18.3534L44.7316 18.3846L44.9741 18.324L45.2166 18.2634L45.2088 18.2321L44.9663 18.2927ZM44.9741 18.324L44.9479 18.0754L44.9294 18.0773L44.9555 18.326L44.9817 18.5746L45.0003 18.5726L44.9741 18.324ZM44.9555 18.326L44.7147 18.259L44.7049 18.2942L44.9458 18.3611L45.1867 18.428L45.1964 18.3929L44.9555 18.326ZM44.9458 18.3611L44.7059 18.2906L44.6864 18.357L44.9263 18.4275L45.1661 18.4981L45.1856 18.4317L44.9458 18.3611ZM44.9263 18.4275L44.9087 18.1781L44.8394 18.183L44.8569 18.4324L44.8745 18.6818L44.9438 18.6769L44.9263 18.4275ZM44.8569 18.4324L44.8409 18.1829L43.378 18.2767L43.394 18.5261L43.41 18.7756L44.8729 18.6819L44.8569 18.4324ZM43.394 18.5261L43.378 18.2767L43.2716 18.2835L43.2876 18.533L43.3036 18.7825L43.41 18.7756L43.394 18.5261ZM43.2876 18.533H43.5376V18.5301H43.2876H43.0376V18.533H43.2876ZM43.2876 18.5301L43.2562 18.282L42.9935 18.3152L43.0249 18.5633L43.0562 18.8113L43.3189 18.7781L43.2876 18.5301ZM43.0249 18.5633L42.9939 18.3152L42.9079 18.3259L42.9389 18.574L42.97 18.8221L43.0559 18.8113L43.0249 18.5633ZM42.9389 18.574L43.1805 18.5094L43.158 18.4254L42.9165 18.49L42.675 18.5546L42.6974 18.6386L42.9389 18.574ZM42.9165 18.49L43.158 18.4255L41.5272 12.3152L41.2856 12.3797L41.0441 12.4441L42.6749 18.5545L42.9165 18.49ZM41.2856 12.3797L41.5267 12.3134C41.2505 11.3091 40.9545 10.4341 40.6389 9.68934L40.4087 9.78689L40.1785 9.88444C40.4834 10.604 40.7726 11.4573 41.0446 12.446L41.2856 12.3797ZM40.4087 9.78689H40.6587V9.78591H40.4087H40.1587V9.78689H40.4087ZM40.4087 9.78591L40.6394 9.68974C40.325 8.93527 39.898 8.03196 39.3597 6.98058L39.1372 7.09451L38.9147 7.20844C39.4494 8.25298 39.8702 9.14376 40.1779 9.88208L40.4087 9.78591ZM39.1372 7.09451H39.3872V7.09353H39.1372H38.8872V7.09451H39.1372ZM39.1372 7.09353L39.3608 6.98164L38.8539 5.96895L38.6304 6.08084L38.4068 6.19273L38.9136 7.20542L39.1372 7.09353ZM38.6304 6.08084L38.854 5.96903L38.8129 5.887L38.5893 5.9988L38.3657 6.11061L38.4067 6.19264L38.6304 6.08084ZM38.5893 5.9988L38.7187 6.21271L38.7978 6.16486L38.6684 5.95095L38.539 5.73705L38.4599 5.7849L38.5893 5.9988ZM38.6684 5.95095L38.7981 6.16473L40.6535 5.03973L40.5239 4.82595L40.3943 4.61218L38.5388 5.73718L38.6684 5.95095ZM40.5239 4.82595L40.6522 5.04052L40.7469 4.98388L40.6186 4.76931L40.4903 4.55474L40.3956 4.61138L40.5239 4.82595ZM40.6186 4.76931L40.3933 4.87757L40.4411 4.97718L40.6665 4.86892L40.8918 4.76067L40.844 4.66106L40.6186 4.76931ZM23.0962 5.08377L22.8491 5.12194C23.0864 6.6578 23.2485 7.8735 23.3356 8.76909L23.5845 8.7449L23.8333 8.7207C23.7449 7.81144 23.5811 6.58513 23.3432 5.0456L23.0962 5.08377ZM23.5845 8.7449L23.3357 8.76943C23.4225 9.65002 23.4663 10.7445 23.4663 12.0535H23.7163H23.9663C23.9663 10.7349 23.9222 9.62286 23.8332 8.72037L23.5845 8.7449ZM23.7163 12.0535H23.4663V18.3767H23.7163H23.9663V12.0535H23.7163ZM23.7163 18.3767V18.1267H21.5854V18.3767V18.6267H23.7163V18.3767ZM21.5854 18.3767H21.8354V12.2967H21.5854H21.3354V18.3767H21.5854ZM21.5854 12.2967L21.8354 12.2967C21.8354 11.1176 21.779 10.0617 21.6656 9.12975L21.4175 9.15994L21.1693 9.19012C21.2797 10.0976 21.3354 11.1329 21.3354 12.2967L21.5854 12.2967ZM21.4175 9.15994L21.6656 9.12975C21.5527 8.2011 21.3707 7.04788 21.1205 5.67185L20.8745 5.71658L20.6285 5.7613C20.8778 7.13198 21.0579 8.27475 21.1693 9.19013L21.4175 9.15994ZM20.8745 5.71658L21.1206 5.67282L21.105 5.58493L20.8589 5.62869L20.6127 5.67245L20.6284 5.76034L20.8745 5.71658ZM20.8589 5.62869L20.9297 5.86844L21.0156 5.84305L20.9448 5.6033L20.874 5.36354L20.788 5.38893L20.8589 5.62869ZM20.9448 5.6033L21.0158 5.843L23.0402 5.24339L22.9692 5.00369L22.8982 4.76398L20.8738 5.36359L20.9448 5.6033ZM22.9692 5.00369L23.0418 5.24291L23.1512 5.2097L23.0786 4.97048L23.006 4.73126L22.8966 4.76447L22.9692 5.00369ZM23.0786 4.97048L22.8316 5.00882L22.8491 5.1221L23.0962 5.08377L23.3432 5.04543L23.3256 4.93215L23.0786 4.97048ZM27.6206 5.08377L27.3737 5.12287C27.5588 6.29224 27.6965 7.28244 27.7902 8.09294L28.0386 8.06423L28.2869 8.03552C28.1922 7.21624 28.0534 6.21885 27.8675 5.04466L27.6206 5.08377ZM28.0386 8.06423L28.1443 8.29078L28.1589 8.28394L28.0532 8.0574L27.9475 7.83085L27.9328 7.83769L28.0386 8.06423ZM28.0532 8.0574L27.8051 8.0882L27.8227 8.2298L28.0708 8.199L28.3189 8.1682L28.3013 8.0266L28.0532 8.0574ZM28.0708 8.199L27.8226 8.2294C27.8982 8.84616 28.0265 9.31613 28.219 9.61992L28.4302 9.48611L28.6413 9.3523C28.5098 9.14467 28.392 8.76542 28.3189 8.1686L28.0708 8.199ZM28.4302 9.48611L28.2328 9.63959L28.2943 9.7187L28.4917 9.56521L28.689 9.41173L28.6275 9.33262L28.4302 9.48611ZM28.4917 9.56521L28.308 9.73483C28.5351 9.98071 28.8862 10.0856 29.3217 10.0857L29.3218 9.83572L29.3218 9.58572C28.954 9.58566 28.7681 9.49608 28.6753 9.3956L28.4917 9.56521ZM29.3218 9.83572V10.0857H29.7524V9.83572V9.58572H29.3218V9.83572ZM29.7524 9.83572V10.0857C30.0916 10.0857 30.3797 9.99629 30.6006 9.80498L30.437 9.61599L30.2733 9.427C30.1644 9.52133 30.0026 9.58572 29.7524 9.58572V9.83572ZM30.437 9.61599L30.6007 9.8049C30.8156 9.6187 30.95 9.37533 31.0058 9.08277L30.7602 9.03591L30.5147 8.98906C30.4782 9.18034 30.3964 9.32035 30.2732 9.42708L30.437 9.61599ZM30.7602 9.03591H31.0102V9.03494H30.7602H30.5102V9.03591H30.7602ZM30.7602 9.03494L31.0053 9.08449L31.6801 5.74758L31.435 5.69802L31.19 5.64847L30.5152 8.98538L30.7602 9.03494ZM31.435 5.69802L31.68 5.74801L31.6995 5.65231L31.4546 5.60232L31.2096 5.55233L31.1901 5.64803L31.435 5.69802ZM31.4546 5.60232L31.4098 5.84829L31.5065 5.86587L31.5513 5.6199L31.596 5.37393L31.4993 5.35635L31.4546 5.60232ZM31.5513 5.6199L31.5064 5.86585L33.4566 6.22131L33.5014 5.97537L33.5463 5.72942L31.5961 5.37395L31.5513 5.6199ZM33.5014 5.97537L33.4557 6.22114L33.5553 6.23969L33.6011 5.99392L33.6468 5.74815L33.5472 5.72959L33.5014 5.97537ZM33.6011 5.99392L33.3562 5.94351L33.3357 6.04312L33.5805 6.09353L33.8254 6.14394L33.8459 6.04433L33.6011 5.99392ZM33.5805 6.09353L33.3355 6.04394L32.774 8.81835L33.019 8.86795L33.2641 8.91754L33.8256 6.14312L33.5805 6.09353ZM33.019 8.86795L32.7765 8.80731L32.7736 8.81903L33.0161 8.87966L33.2586 8.9403L33.2616 8.92858L33.019 8.86795ZM33.0161 8.87966L33.0937 8.64201L32.998 8.61076L32.9204 8.84841L32.8428 9.08607L32.9385 9.11732L33.0161 8.87966ZM32.9204 8.84841L32.8421 9.08583L32.9368 9.11708L33.0151 8.87966L33.0934 8.64225L32.9987 8.611L32.9204 8.84841ZM33.0151 8.87966L32.7779 8.80088C32.7577 8.86152 32.7515 8.93715 32.7514 9.01629L33.0014 9.01638L33.2514 9.01648C33.2515 8.98768 33.2528 8.96842 33.254 8.95705C33.2547 8.95144 33.2552 8.9487 33.2552 8.94836C33.2554 8.9477 33.2547 8.95153 33.2524 8.95845L33.0151 8.87966ZM33.0014 9.01638H32.7514C32.7514 9.3059 32.8555 9.56094 33.055 9.77481L33.2378 9.60427L33.4206 9.43374C33.304 9.3088 33.2514 9.1744 33.2514 9.01638H33.0014ZM33.2378 9.60427V9.35427H33.2368V9.60427V9.85427H33.2378V9.60427ZM33.2368 9.60427L33.0606 9.78161C33.2651 9.98483 33.5227 10.0856 33.8207 10.0857L33.8208 9.83572L33.8209 9.58572C33.6458 9.58565 33.5176 9.53087 33.413 9.42694L33.2368 9.60427ZM33.8208 9.83572V10.0857H35.5014V9.83572V9.58572H33.8208V9.83572ZM35.5014 9.83572H35.7514V5.41189H35.5014H35.2514V9.83572H35.5014ZM35.5014 5.41189V5.66189H37.6323V5.41189V5.16189H35.5014V5.41189ZM37.6323 5.41189H37.3823V9.35427H37.6323H37.8823V5.41189H37.6323ZM37.6323 9.35427L37.3823 9.35427C37.3823 10.2018 37.1586 10.863 36.726 11.3541L36.9136 11.5193L37.1011 11.6846C37.6328 11.081 37.8823 10.292 37.8823 9.35428L37.6323 9.35427ZM36.9136 11.5193L36.7257 11.3543C36.3115 11.8259 35.7017 12.072 34.8706 12.072L34.8706 12.322L34.8706 12.572C35.8048 12.572 36.5683 12.2912 37.1014 11.6843L36.9136 11.5193ZM34.8706 12.322V12.072H33.8393V12.322V12.572H34.8706V12.322ZM33.8393 12.322L33.8394 12.072C33.4091 12.072 33.0391 11.9886 32.7269 11.8267L32.6118 12.0486L32.4967 12.2706C32.8923 12.4757 33.3439 12.572 33.8393 12.572L33.8393 12.322ZM32.6118 12.0486L32.7886 11.8718L32.7876 11.8709L32.6108 12.0476L32.434 12.2244L32.435 12.2254L32.6118 12.0486ZM32.6108 12.0476L32.7294 11.8275C32.4656 11.6855 32.2278 11.4584 32.018 11.1389L31.8091 11.2761L31.6001 11.4134C31.8453 11.7869 32.1407 12.0784 32.4923 12.2677L32.6108 12.0476ZM31.8091 11.2761L31.6085 11.1269C31.3868 11.4248 31.1216 11.6509 30.8105 11.8065L30.9223 12.0301L31.0342 12.2536C31.4201 12.0606 31.7446 11.7815 32.0096 11.4254L31.8091 11.2761ZM30.9223 12.0301L30.8106 11.8064C30.4574 11.9829 30.0736 12.072 29.6587 12.072V12.322V12.572C30.1479 12.572 30.6086 12.4663 31.0341 12.2537L30.9223 12.0301ZM29.6587 12.322L29.6587 12.072C29.1425 12.072 28.7228 11.9613 28.3904 11.7543L28.2583 11.9666L28.1262 12.1788C28.5546 12.4455 29.071 12.572 29.6586 12.572L29.6587 12.322ZM28.2583 11.9666L28.0083 11.967C28.0083 11.9836 28.0086 12 28.0088 12.0141C28.0091 12.0288 28.0093 12.0413 28.0093 12.0535L28.2593 12.0535L28.5093 12.0535C28.5093 12.0366 28.509 12.0201 28.5088 12.0059C28.5085 11.9909 28.5083 11.9784 28.5083 11.9662L28.2583 11.9666ZM28.2593 12.0535H28.0093V18.3767H28.2593H28.5093V12.0535H28.2593ZM28.2593 18.3767V18.1267H26.1284V18.3767V18.6267H28.2593V18.3767ZM26.1284 18.3767H26.3784V12.2967H26.1284H25.8784V18.3767H26.1284ZM26.1284 12.2967L26.3784 12.2967C26.3784 11.1176 26.322 10.0617 26.2086 9.12975L25.9604 9.15994L25.7123 9.19012C25.8226 10.0976 25.8784 11.1329 25.8784 12.2967L26.1284 12.2967ZM25.9604 9.15994L26.2086 9.12975C26.0956 8.2011 25.9136 7.04789 25.6634 5.67185L25.4175 5.71658L25.1715 5.7613C25.4207 7.132 25.6009 8.27475 25.7123 9.19013L25.9604 9.15994ZM25.4175 5.71658L25.6636 5.67282L25.648 5.58493L25.4018 5.62869L25.1557 5.67245L25.1713 5.76034L25.4175 5.71658ZM25.4018 5.62869L25.4734 5.86822L25.5584 5.84283L25.4868 5.6033L25.4152 5.36376L25.3303 5.38916L25.4018 5.62869ZM25.4868 5.6033L25.5584 5.84282L27.5643 5.24321L27.4927 5.00369L27.4211 4.76416L25.4152 5.36377L25.4868 5.6033ZM27.4927 5.00369L27.5647 5.24309L27.675 5.20988L27.603 4.97048L27.531 4.73109L27.4206 4.76429L27.4927 5.00369ZM27.603 4.97048L27.356 5.00882L27.3735 5.1221L27.6206 5.08377L27.8676 5.04543L27.8501 4.93215L27.603 4.97048ZM21.685 18.2761V18.5261H21.686V18.2761V18.0261H21.685V18.2761ZM21.686 18.2761H21.936V12.2967H21.686H21.436V18.2761H21.686ZM21.686 12.2967V12.0467H21.685V12.2967V12.5467H21.686V12.2967ZM21.685 12.2967H21.435V18.2761H21.685H21.935V12.2967H21.685ZM26.228 18.2761V18.5261H26.229V18.2761V18.0261H26.228V18.2761ZM26.229 18.2761H26.479V12.2967H26.229H25.979V18.2761H26.229ZM26.229 12.2967V12.0467H26.228V12.2967V12.5467H26.229V12.2967ZM26.228 12.2967H25.978V18.2761H26.228H26.478V12.2967H26.228ZM29.4927 12.2185L29.4868 12.4685L29.6528 12.4724L29.6587 12.2224L29.6646 11.9725L29.4985 11.9686L29.4927 12.2185ZM29.6587 12.2224H29.9087V12.2215H29.6587H29.4087V12.2224H29.6587ZM29.6587 12.2215L29.6587 11.9715C29.5725 11.9714 29.4886 11.9679 29.4066 11.9615L29.3872 12.2107L29.3678 12.46C29.4616 12.4673 29.5586 12.4714 29.6586 12.4715L29.6587 12.2215ZM29.3872 12.2107L29.3678 12.46C29.3957 12.4621 29.4403 12.4664 29.4812 12.4683L29.4927 12.2185L29.5041 11.9688C29.4738 11.9674 29.4482 11.9647 29.4066 11.9615L29.3872 12.2107ZM23.6167 12.0535L23.8667 12.0521L23.8628 11.3363L23.6128 11.3377L23.3628 11.339L23.3667 12.0549L23.6167 12.0535ZM23.6128 11.3377L23.8628 11.3343C23.8624 11.3066 23.8615 11.2795 23.8607 11.2548C23.8599 11.2293 23.8592 11.2066 23.8588 11.1841L23.6089 11.1883L23.3589 11.1924C23.3594 11.2194 23.3602 11.2463 23.361 11.2706C23.3618 11.2957 23.3625 11.3185 23.3628 11.341L23.6128 11.3377ZM23.6089 11.1883L23.3589 11.1924C23.3634 11.4688 23.3667 11.7558 23.3667 12.0535H23.6167H23.8667C23.8667 11.7523 23.8634 11.4623 23.8588 11.1842L23.6089 11.1883ZM32.6577 11.9597L32.5426 12.1817C32.5516 12.1863 32.5592 12.1897 32.5641 12.1917C32.5688 12.1937 32.573 12.1953 32.5738 12.1956C32.5756 12.1964 32.5739 12.1957 32.5719 12.1948C32.5695 12.1939 32.5644 12.1917 32.5578 12.1883L32.6714 11.9656L32.7849 11.7429C32.7762 11.7384 32.7688 11.7352 32.7642 11.7333C32.7598 11.7315 32.7558 11.7299 32.7553 11.7297C32.7537 11.7291 32.7556 11.7298 32.7579 11.7308C32.7606 11.7319 32.766 11.7343 32.7728 11.7378L32.6577 11.9597ZM32.6714 11.9656L32.7849 11.7429C32.7794 11.7401 32.7746 11.7379 32.7714 11.7364C32.7684 11.735 32.7655 11.7338 32.7649 11.7335C32.7637 11.733 32.7645 11.7333 32.7658 11.7339C32.7671 11.7345 32.77 11.7359 32.7737 11.7378L32.6587 11.9597L32.5436 12.1817C32.5494 12.1847 32.5544 12.187 32.5579 12.1886C32.5612 12.1902 32.5642 12.1914 32.5651 12.1918C32.5666 12.1925 32.5659 12.1922 32.565 12.1918C32.5639 12.1913 32.5613 12.1901 32.5578 12.1883L32.6714 11.9656ZM32.6587 11.9597L32.7772 11.7396C32.7248 11.7114 32.6736 11.6799 32.6236 11.6447L32.48 11.8494L32.3364 12.054C32.4024 12.1004 32.4704 12.1423 32.5402 12.1799L32.6587 11.9597ZM32.48 11.8494L32.3481 12.0618L32.5258 12.1721L32.6577 11.9597L32.7896 11.7474L32.6118 11.637L32.48 11.8494ZM43.2007 11.4539L43.4429 11.3922L43.3062 10.8551L43.0639 10.9168L42.8217 10.9784L42.9584 11.5156L43.2007 11.4539ZM43.0639 10.9168L43.3054 10.8518C43.2952 10.8141 43.2766 10.7507 43.2688 10.7224L43.0278 10.7888L42.7868 10.8553C42.8024 10.912 42.8096 10.9335 42.8225 10.9817L43.0639 10.9168ZM43.0278 10.7888L42.7868 10.8553C42.8457 11.0689 42.903 11.2883 42.9578 11.5131L43.2007 11.4539L43.4436 11.3947C43.3875 11.1646 43.3289 10.9405 43.2688 10.7224L43.0278 10.7888ZM29.7524 9.93533L29.761 10.1852L29.8752 10.1813L29.8667 9.93142L29.8581 9.68157L29.7439 9.68547L29.7524 9.93533ZM29.8667 9.93142L29.8837 10.1808C29.9014 10.1796 29.9174 10.1777 29.9285 10.1763C29.9418 10.1745 29.9466 10.1738 29.9532 10.1731L29.9263 9.92459L29.8993 9.67604C29.857 9.68063 29.8664 9.68086 29.8497 9.682L29.8667 9.93142ZM29.9263 9.92459L29.8993 9.67604C29.848 9.6816 29.7999 9.68533 29.7524 9.68533V9.93533V10.1853C29.8253 10.1853 29.8933 10.1796 29.9532 10.1731L29.9263 9.92459ZM35.6011 9.93533V10.1853H35.602V9.93533V9.68533H35.6011V9.93533ZM35.602 9.93533H35.852V5.5115H35.602H35.352V9.93533H35.602ZM35.602 5.5115V5.2615H35.6011V5.5115V5.7615H35.602V5.5115ZM35.6011 5.5115H35.3511V9.93533H35.6011H35.8511V5.5115H35.6011ZM25.9624 8.41287L25.7148 8.44785C25.7512 8.70532 25.783 8.94887 25.8109 9.17841L26.0591 9.14822L26.3072 9.11803C26.2789 8.88548 26.2468 8.63873 26.2099 8.37789L25.9624 8.41287ZM26.0591 9.14822L25.8109 9.1784C25.8387 9.40665 25.8633 9.64265 25.8842 9.88633L26.1333 9.86502L26.3824 9.84371C26.361 9.59394 26.3357 9.35202 26.3072 9.11803L26.0591 9.14822ZM26.1333 9.86502L26.3824 9.84373C26.3611 9.59463 26.3367 9.35264 26.3082 9.11803L26.06 9.14822L25.8119 9.1784C25.8396 9.40602 25.8633 9.64196 25.8842 9.8863L26.1333 9.86502ZM26.06 9.14822L26.3082 9.11803C26.2798 8.88471 26.2468 8.63751 26.2099 8.37684L25.9624 8.41189L25.7149 8.44694C25.7514 8.70523 25.784 8.94908 25.8119 9.17841L26.06 9.14822ZM25.9624 8.41189H25.7124V8.41287H25.9624H26.2124V8.41189H25.9624Z" fill="white"/>
</g>
</g>
</svg>
