<svg preserveAspectRatio="none" overflow="visible" style="display: block;" width="39.6022" height="39.601" viewBox="0 0 39.6022 39.601" fill="none" xmlns="http://www.w3.org/2000/svg">
<g id="icons8_bank_building 1" clip-path="url(#clip0_0_128)">
<path id="Vector" d="M36.5083 15.7785H3.09392C1.55934 15.7785 0.309392 14.5286 0.309392 12.9941V11.3574C0.309392 10.2963 0.900331 9.34336 1.85016 8.86691L18.5573 0.513575C19.337 0.123753 20.2683 0.123753 21.0479 0.513575L37.7551 8.86691C38.7049 9.34336 39.2959 10.2963 39.2959 11.3574V12.9941C39.2928 14.5286 38.0428 15.7785 36.5083 15.7785ZM19.8011 2.07596C19.6588 2.07596 19.5164 2.1069 19.3865 2.17496L2.67933 10.5283C2.36375 10.6861 2.16574 11.0017 2.16574 11.3574V12.9941C2.16574 13.5046 2.58342 13.9222 3.09392 13.9222H36.5083C37.0188 13.9222 37.4364 13.5046 37.4364 12.9941V11.3574C37.4364 11.0047 37.2384 10.6861 36.9228 10.5283L20.2157 2.17496C20.0857 2.10999 19.9434 2.07596 19.8011 2.07596Z" fill="#59668A"/>
<path id="Vector_2" d="M7.11602 34.9603C5.23801 34.9603 3.7127 33.435 3.7127 31.557V21.6568C3.7127 19.7788 5.23801 18.2536 7.11602 18.2536C8.99403 18.2536 10.5193 19.7788 10.5193 21.6568V31.557C10.5193 33.435 8.99403 34.9603 7.11602 34.9603ZM7.11602 20.1099C6.2621 20.1099 5.56906 20.8029 5.56906 21.6568V31.557C5.56906 32.4109 6.2621 33.104 7.11602 33.104C7.96994 33.104 8.66298 32.4109 8.66298 31.557V21.6568C8.66298 20.8029 7.96994 20.1099 7.11602 20.1099Z" fill="#00B757"/>
<path id="Vector_3" d="M19.8011 34.9603C17.9231 34.9603 16.3978 33.435 16.3978 31.557V21.6568C16.3978 19.7788 17.9231 18.2536 19.8011 18.2536C21.6791 18.2536 23.2044 19.7788 23.2044 21.6568V31.557C23.2044 33.435 21.6791 34.9603 19.8011 34.9603ZM19.8011 20.1099C18.9472 20.1099 18.2541 20.8029 18.2541 21.6568V31.557C18.2541 32.4109 18.9472 33.104 19.8011 33.104C20.655 33.104 21.3481 32.4109 21.3481 31.557V21.6568C21.3481 20.8029 20.655 20.1099 19.8011 20.1099Z" fill="#00B757"/>
<path id="Vector_4" d="M32.4862 34.9603C30.6082 34.9603 29.0829 33.435 29.0829 31.557V21.6568C29.0829 19.7788 30.6082 18.2536 32.4862 18.2536C34.3642 18.2536 35.8895 19.7788 35.8895 21.6568V31.557C35.8895 33.435 34.3642 34.9603 32.4862 34.9603ZM32.4862 20.1099C31.6322 20.1099 30.9392 20.8029 30.9392 21.6568V31.557C30.9392 32.4109 31.6322 33.104 32.4862 33.104C33.3401 33.104 34.0331 32.4109 34.0331 31.557V21.6568C34.0331 20.8029 33.3401 20.1099 32.4862 20.1099Z" fill="#00B757"/>
<path id="Vector_5" d="M38.3646 39.2916H1.23757C0.723977 39.2916 0.309392 38.877 0.309392 38.3635C0.309392 37.8499 0.723977 37.4353 1.23757 37.4353H38.3646C38.8782 37.4353 39.2928 37.8499 39.2928 38.3635C39.2928 38.877 38.8782 39.2916 38.3646 39.2916Z" fill="#59668A"/>
</g>
<defs>
<clipPath id="clip0_0_128">
<rect width="39.6022" height="39.601" fill="white"/>
</clipPath>
</defs>
</svg>
